<svg width="81" height="80" viewBox="0 0 81 80" fill="none" xmlns="http://www.w3.org/2000/svg">
<path d="M1.9057 34.2585H77.7576L75.5267 41.695H5.25211L1.9057 34.2585Z" fill="#DADADA"/>
<path d="M77.0994 35.9652H2.42188C2.42188 35.9652 3.4765 41.5698 8 47.5346H71.4218C75.8941 41.5698 77.0994 35.9652 77.0994 35.9652Z" fill="#E7E7E7"/>
<path d="M47.9402 60.0317C72.5016 56.3478 77.1 34.9652 77.1 34.9652H2.42242C2.42242 34.9652 6.49952 56.632 33.0047 60.1026C35.3122 60.4047 38.1684 60.569 40.828 60.569C43.5109 60.569 45.625 60.379 47.9402 60.0317ZM33.0047 60.1026C33.3603 62.8658 34.1426 68.9613 34.4271 71.2372C34.7116 73.5131 36.5607 73.7264 37.272 73.7264H40.828H44.3841C45.0953 73.7264 46.5178 73.3708 46.8734 71.2372C47.1578 69.5303 47.7031 63.0556 47.9402 60.0317" stroke="#151716" stroke-width="2"/>
<path d="M27.1899 16.545C27.1899 8.66706 31.1774 6 35.2474 6C39.3174 6 42.5594 9.20047 42.5594 16.545C42.5594 25.1732 42.5594 26.5906 42.5594 33.6886" stroke="#151716" stroke-width="4" stroke-linecap="round"/>
<rect x="1" y="32.8317" width="78.2337" height="8.53458" rx="2" fill="white" stroke="#151716" stroke-width="2"/>
</svg>
