<svg width="20" height="21" viewBox="0 0 20 21" fill="none" xmlns="http://www.w3.org/2000/svg">
<g clip-path="url(#clip0_27772_2234)">
<path d="M1.82617 3.5H4.00008C4.43487 5.23913 5.39139 9.06522 5.73921 10.4565C6.174 12.1957 6.60878 12.6304 8.34791 12.6304C9.65226 12.6304 12.6957 12.5 14 12.5C17.4999 12.5 17.5 11 18.1305 5.67391C12.3914 5.67391 8.65226 5.67391 7.78269 5.67391" stroke="#F5702C" stroke-width="1.6" stroke-linecap="round"/>
<path fill-rule="evenodd" clip-rule="evenodd" d="M7.34851 18.5002C8.309 18.5002 9.08764 17.7216 9.08764 16.7611C9.08764 15.8006 8.309 15.022 7.34851 15.022C6.38801 15.022 5.60938 15.8006 5.60938 16.7611C5.60938 17.7216 6.38801 18.5002 7.34851 18.5002ZM14.4344 18.5002C15.3949 18.5002 16.1736 17.7216 16.1736 16.7611C16.1736 15.8006 15.3949 15.022 14.4344 15.022C13.4739 15.022 12.6953 15.8006 12.6953 16.7611C12.6953 17.7216 13.4739 18.5002 14.4344 18.5002Z" fill="#F5702C"/>
</g>
<defs>
<clipPath id="clip0_27772_2234">
<rect width="20" height="20" fill="white" transform="translate(0 0.5)"/>
</clipPath>
</defs>
</svg>
