<svg width="80" height="80" viewBox="0 0 80 80" fill="none" xmlns="http://www.w3.org/2000/svg">
<path d="M2 22.7334H78C78.5523 22.7334 79 23.1811 79 23.7334V71.0664C79 71.6187 78.5523 72.0664 78 72.0664H2C1.44772 72.0664 1 71.6187 1 71.0664V23.7334C1 23.1811 1.44771 22.7334 2 22.7334Z" stroke="#272727" stroke-width="2"/>
<path d="M17.2109 18.9551H62.7221L61.3835 23.417H19.2188L17.2109 18.9551Z" fill="#DADADA"/>
<path d="M32.3809 8.32699C32.3809 3.60023 34.7733 2 37.2153 2C39.6573 2 41.6025 3.92028 41.6025 8.32699C41.6025 13.5039 41.6025 14.3544 41.6025 18.6132" stroke="#151716" stroke-width="3" stroke-linecap="round"/>
<rect x="16.668" y="18.0991" width="46.9402" height="5.12075" rx="1.8" fill="white" stroke="#151716" stroke-width="1.8"/>
<path d="M9.50098 73.5664V76.7334C9.5008 77.0094 9.27701 77.2334 9.00098 77.2334H7.66797C7.39194 77.2334 7.16815 77.0094 7.16797 76.7334V73.5664H9.50098Z" fill="#151716" stroke="#151716"/>
<path d="M34 42.2334C34.2761 42.2334 34.5 42.4573 34.5 42.7334V51.7334C34.5 52.0095 34.2761 52.2334 34 52.2334C33.7239 52.2334 33.5 52.0095 33.5 51.7334V42.7334C33.5 42.4573 33.7239 42.2334 34 42.2334Z" fill="#151716" stroke="#151716"/>
<path d="M46 42.2334C46.2761 42.2334 46.5 42.4573 46.5 42.7334V51.7334C46.5 52.0095 46.2761 52.2334 46 52.2334C45.7239 52.2334 45.5 52.0095 45.5 51.7334V42.7334C45.5 42.4573 45.7239 42.2334 46 42.2334Z" fill="#151716" stroke="#151716"/>
<path d="M72.833 73.5664V76.7334C72.8328 77.0094 72.609 77.2334 72.333 77.2334H71C70.724 77.2334 70.5002 77.0094 70.5 76.7334V73.5664H72.833Z" fill="#151716" stroke="#151716"/>
</svg>
