<svg width="126" height="35" viewBox="0 0 126 35" fill="none" xmlns="http://www.w3.org/2000/svg">
<path d="M1.1582 11.2907L11.4399 1.14282C9.09908 2.02495 6.97329 3.38483 5.20153 5.13352C3.42978 6.88222 2.05197 8.98034 1.1582 11.2907Z" fill="#F5702C"/>
<path d="M17.7503 0C16.9118 0.00124832 16.0744 0.0600794 15.2442 0.176067L0.17947 15.0457C0.0604284 15.8646 0.000454142 16.6909 0 17.5181C0 17.6793 0.00756802 17.8383 0.0118926 17.9994L18.2379 0.0117378C18.0757 0.00746951 17.9135 0 17.7503 0Z" fill="#F5702C"/>
<path d="M23.0843 0.806722C22.3385 0.575973 21.5778 0.394875 20.8074 0.264648L0.265625 20.539C0.397689 21.2994 0.581174 22.0501 0.814847 22.7863L23.0843 0.806722Z" fill="#F5702C"/>
<path d="M26.9724 2.54826C26.3759 2.19232 25.7586 1.87163 25.1236 1.58789L1.60547 24.7967C1.8925 25.4233 2.21743 26.0323 2.5785 26.6204L26.9724 2.54826Z" fill="#F5702C"/>
<path d="M30.1505 4.98955C29.6713 4.52871 29.1659 4.09513 28.6369 3.69092L3.74023 28.2677C4.15043 28.7897 4.59007 29.2885 5.05707 29.7617L30.1505 4.98955Z" fill="#F5702C"/>
<path d="M32.6891 8.06275C32.3236 7.50204 31.9266 6.96197 31.4999 6.44507L6.52539 31.0945C7.04904 31.5162 7.59662 31.9081 8.16549 32.2682L32.6891 8.06275Z" fill="#F5702C"/>
<path d="M34.5337 11.82C34.3002 11.1459 34.0247 10.4866 33.7088 9.84595L9.97656 33.2693C10.6263 33.5804 11.2946 33.8523 11.9778 34.0835L34.5337 11.82Z" fill="#F5702C"/>
<path d="M35.4625 16.4799C35.4144 15.6495 35.306 14.8236 35.1382 14.0085L14.1953 34.6799C15.0204 34.8454 15.8565 34.9524 16.6971 35L35.4625 16.4799Z" fill="#F5702C"/>
<path d="M34.6573 22.8546C35.029 21.7076 35.2794 20.5257 35.4044 19.3279L19.584 34.9424C20.7977 34.8194 21.9952 34.5723 23.1572 34.205L34.6573 22.8546Z" fill="#F5702C"/>
<path d="M52.0926 24.5854C51.1501 24.5906 50.216 24.4112 49.3443 24.0577C48.4725 23.7041 47.6805 23.1833 47.0141 22.5255C46.3478 21.8677 45.8202 21.0859 45.4621 20.2255C45.104 19.365 44.9224 18.443 44.9279 17.5128C44.9279 13.5646 48.0902 10.3848 52.0926 10.3848C56.095 10.3848 59.2584 13.5625 59.2584 17.5128C59.2637 18.4431 59.082 19.3651 58.7238 20.2255C58.3655 21.086 57.8379 21.8678 57.1714 22.5255C56.505 23.1833 55.7129 23.7041 54.8411 24.0577C53.9693 24.4113 53.0351 24.5906 52.0926 24.5854ZM52.0926 12.504C49.2211 12.504 47.248 14.7651 47.248 17.4851C47.248 20.2328 49.2211 22.4662 52.0926 22.4662C54.9641 22.4662 56.9372 20.2328 56.9372 17.4851C56.9372 14.7651 54.9641 12.504 52.0926 12.504Z" fill="#F5702C"/>
<path d="M68.6252 24.213L65.5223 18.5724H64.5925V24.213H62.2734V10.7561H64.8249C67.4359 10.7561 70.2501 11.4156 70.2501 14.6499C70.2501 16.5407 69.0317 17.6558 67.784 18.1146L71.4102 24.213H68.6252ZM64.8249 12.8753H64.5925V16.5685L64.8541 16.5407C66.624 16.5407 67.8424 16.2825 67.8424 14.7363C67.8132 13.0759 66.6823 12.8753 64.8249 12.8753Z" fill="#F5702C"/>
<path d="M82.3464 24.213L81.0718 21.2348H75.5882L74.3406 24.213H71.7891L77.9386 10.7561H78.7505L84.8709 24.213H82.3464ZM78.3148 14.7939H78.2575L76.3428 19.4314H80.2879L78.3148 14.7939Z" fill="#F5702C"/>
<path d="M97.9515 24.213L89.3651 15.0799V24.213H87.0449V10.7561H88.205L96.7623 19.9468V10.7561H99.0835V24.213H97.9515Z" fill="#F5702C"/>
<path d="M109.087 24.5853C105.026 24.5853 102.096 21.2923 102.096 17.5426C102.096 13.6777 105.026 10.3857 109.203 10.3857C111.727 10.3857 113.496 11.4443 115.265 13.5635L113.526 15.0809C112.161 13.3053 111.03 12.5049 109.174 12.5049C106.331 12.5049 104.474 14.8803 104.503 17.5426C104.503 20.1196 106.505 22.4383 109.087 22.4383C111.142 22.4383 112.916 21.0074 113.176 19.1752H109.176V17.0549H115.731C115.732 21.3499 113.529 24.5853 109.087 24.5853Z" fill="#F5702C"/>
<path d="M118.777 24.213V10.7561H126V12.8753H121.099V15.9698H126V18.089H121.099V22.097H126V24.2162L118.777 24.213Z" fill="#F5702C"/>
</svg>
