<svg xmlns="http://www.w3.org/2000/svg" fill="none" viewBox="0 0 95 113">
  <path fill="#fff" fill-rule="evenodd" stroke="#FB6900" stroke-width="3" d="m33.162 106.736-7.33-12.475c-.474-.7-1.183-1.165-2.011-1.165H7.504L29.42 59.128l6.74 1.166 5.203 9.443c1.064 2.215 3.665 3.148 6.03 2.215l4.966-2.215 2.365 4.08z" clip-rule="evenodd"/>
  <path fill="#fff" fill-rule="evenodd" stroke="#FB6900" stroke-width="3" d="m70.497 93.529-7.63 13.346-26.683-38.807c-.123-.364-.246-.607-.492-.85l-2.708-4.731.862-.364 10.09 4.853c.739.364 1.477.485 2.215.485 1.723 0 3.446-.849 4.307-2.426l5.538-9.828 7.383-1.335L89.57 92.315H72.59c-.862 0-1.723.486-2.093 1.214Z" clip-rule="evenodd"/>
  <path fill="#fff" fill-rule="evenodd" stroke="#FB6900" stroke-width="3" d="M47.703 72.694 36.686 78.55l-6.056-10.8-12.478-.946.826-12.314L9 47.043l7.447-9.918-4.311-11.586 11.703-4.374 2.725-12.044 12.243 2.559L47.703 3l8.896 8.68 12.243-2.56 2.725 12.045L83.27 25.54l-4.31 11.585 7.447 9.918-9.98 7.448.827 12.314-12.478.946-6.056 10.8z" clip-rule="evenodd"/>
  <path stroke="#FB6900" stroke-linecap="round" stroke-width="3" d="M36 42.188 45.17 49 59 32"/>
</svg>
